<svg width="175" height="175" viewBox="0 0 175 175" fill="none" xmlns="http://www.w3.org/2000/svg">
<circle cx="87.5" cy="87.5" r="87.5" fill="#2B3C5B"/>
<path d="M58.9375 81.6367C58.9375 80.9883 58.6836 80.4805 58.1758 80.1133C57.668 79.7383 56.9961 79.5508 56.1602 79.5508C55.4102 79.5508 54.7852 79.7383 54.2852 80.1133C53.793 80.4805 53.5469 80.9609 53.5469 81.5547H50.0312C50.0312 80.6328 50.2891 79.8047 50.8047 79.0703C51.3281 78.3281 52.0664 77.75 53.0195 77.3359C53.9805 76.9219 55.0273 76.7148 56.1602 76.7148C58.1289 76.7148 59.6719 77.1367 60.7891 77.9805C61.9062 78.8242 62.4648 80.0195 62.4648 81.5664C62.4648 82.3242 62.2344 83.0273 61.7734 83.6758C61.3203 84.3242 60.6719 84.8438 59.8281 85.2344C60.7656 85.5625 61.4844 86.0625 61.9844 86.7344C62.4844 87.3984 62.7344 88.2266 62.7344 89.2188C62.7344 90.75 62.1328 91.9688 60.9297 92.875C59.7344 93.7734 58.1445 94.2227 56.1602 94.2227C54.918 94.2227 53.8008 94.0117 52.8086 93.5898C51.8164 93.1602 51.0625 92.5781 50.5469 91.8438C50.0391 91.1016 49.7852 90.2422 49.7852 89.2656H53.3242C53.3242 89.875 53.5898 90.3867 54.1211 90.8008C54.6523 91.207 55.332 91.4102 56.1602 91.4102C57.0977 91.4102 57.8359 91.1992 58.375 90.7773C58.9219 90.3555 59.1953 89.8203 59.1953 89.1719C59.1953 88.2812 58.9531 87.6445 58.4688 87.2617C57.9844 86.8711 57.2773 86.6758 56.3477 86.6758H54.25V83.9219H56.418C58.0977 83.8984 58.9375 83.1367 58.9375 81.6367ZM72.4609 94C72.3047 93.6953 72.1914 93.3164 72.1211 92.8633C71.3008 93.7773 70.2344 94.2344 68.9219 94.2344C67.6797 94.2344 66.6484 93.875 65.8281 93.1562C65.0156 92.4375 64.6094 91.5312 64.6094 90.4375C64.6094 89.0938 65.1055 88.0625 66.0977 87.3438C67.0977 86.625 68.5391 86.2617 70.4219 86.2539H71.9805V85.5273C71.9805 84.9414 71.8281 84.4727 71.5234 84.1211C71.2266 83.7695 70.7539 83.5938 70.1055 83.5938C69.5352 83.5938 69.0859 83.7305 68.7578 84.0039C68.4375 84.2773 68.2773 84.6523 68.2773 85.1289H64.8906C64.8906 84.3945 65.1172 83.7148 65.5703 83.0898C66.0234 82.4648 66.6641 81.9766 67.4922 81.625C68.3203 81.2656 69.25 81.0859 70.2812 81.0859C71.8438 81.0859 73.082 81.4805 73.9961 82.2695C74.918 83.0508 75.3789 84.1523 75.3789 85.5742V91.0703C75.3867 92.2734 75.5547 93.1836 75.8828 93.8008V94H72.4609ZM69.6602 91.6445C70.1602 91.6445 70.6211 91.5352 71.043 91.3164C71.4648 91.0898 71.7773 90.7891 71.9805 90.4141V88.2344H70.7148C69.0195 88.2344 68.1172 88.8203 68.0078 89.9922L67.9961 90.1914C67.9961 90.6133 68.1445 90.9609 68.4414 91.2344C68.7383 91.5078 69.1445 91.6445 69.6602 91.6445ZM89.3945 87.7773C89.3945 89.7305 88.9492 91.2969 88.0586 92.4766C87.1758 93.6484 85.9805 94.2344 84.4727 94.2344C83.1914 94.2344 82.1562 93.7891 81.3672 92.8984V98.875H77.9805V81.3203H81.1211L81.2383 82.5625C82.0586 81.5781 83.1289 81.0859 84.4492 81.0859C86.0117 81.0859 87.2266 81.6641 88.0938 82.8203C88.9609 83.9766 89.3945 85.5703 89.3945 87.6016V87.7773ZM86.0078 87.5312C86.0078 86.3516 85.7969 85.4414 85.375 84.8008C84.9609 84.1602 84.3555 83.8398 83.5586 83.8398C82.4961 83.8398 81.7656 84.2461 81.3672 85.0586V90.25C81.7812 91.0859 82.5195 91.5039 83.582 91.5039C85.1992 91.5039 86.0078 90.1797 86.0078 87.5312ZM98.8516 94C98.6953 93.6953 98.582 93.3164 98.5117 92.8633C97.6914 93.7773 96.625 94.2344 95.3125 94.2344C94.0703 94.2344 93.0391 93.875 92.2188 93.1562C91.4062 92.4375 91 91.5312 91 90.4375C91 89.0938 91.4961 88.0625 92.4883 87.3438C93.4883 86.625 94.9297 86.2617 96.8125 86.2539H98.3711V85.5273C98.3711 84.9414 98.2188 84.4727 97.9141 84.1211C97.6172 83.7695 97.1445 83.5938 96.4961 83.5938C95.9258 83.5938 95.4766 83.7305 95.1484 84.0039C94.8281 84.2773 94.668 84.6523 94.668 85.1289H91.2812C91.2812 84.3945 91.5078 83.7148 91.9609 83.0898C92.4141 82.4648 93.0547 81.9766 93.8828 81.625C94.7109 81.2656 95.6406 81.0859 96.6719 81.0859C98.2344 81.0859 99.4727 81.4805 100.387 82.2695C101.309 83.0508 101.77 84.1523 101.77 85.5742V91.0703C101.777 92.2734 101.945 93.1836 102.273 93.8008V94H98.8516ZM96.0508 91.6445C96.5508 91.6445 97.0117 91.5352 97.4336 91.3164C97.8555 91.0898 98.168 90.7891 98.3711 90.4141V88.2344H97.1055C95.4102 88.2344 94.5078 88.8203 94.3984 89.9922L94.3867 90.1914C94.3867 90.6133 94.5352 90.9609 94.832 91.2344C95.1289 91.5078 95.5352 91.6445 96.0508 91.6445ZM111.027 85.0586C111.027 84.6133 110.879 84.2695 110.582 84.0273C110.293 83.7773 109.879 83.6523 109.34 83.6523C108.785 83.6523 108.332 83.7695 107.98 84.0039C107.637 84.2305 107.465 84.5547 107.465 84.9766H104.078C104.078 83.8281 104.555 82.8945 105.508 82.1758C106.461 81.457 107.68 81.0977 109.164 81.0977C110.797 81.0977 112.078 81.418 113.008 82.0586C113.945 82.6992 114.414 83.6094 114.414 84.7891C114.414 85.3516 114.242 85.8711 113.898 86.3477C113.562 86.8164 113.086 87.1914 112.469 87.4727C113.914 87.9805 114.637 88.9609 114.637 90.4141C114.637 91.5781 114.137 92.5078 113.137 93.2031C112.145 93.8906 110.82 94.2344 109.164 94.2344C107.625 94.2344 106.359 93.875 105.367 93.1562C104.375 92.4375 103.879 91.4688 103.879 90.25H107.266C107.266 90.6797 107.457 91.0273 107.84 91.293C108.223 91.5586 108.723 91.6914 109.34 91.6914C109.941 91.6914 110.41 91.5508 110.746 91.2695C111.082 90.9883 111.25 90.6211 111.25 90.168C111.25 89.6133 111.09 89.2188 110.77 88.9844C110.449 88.7422 109.969 88.6211 109.328 88.6211H107.488V86.418H109.445C110.5 86.3867 111.027 85.9336 111.027 85.0586ZM124.047 94C123.891 93.6953 123.777 93.3164 123.707 92.8633C122.887 93.7773 121.82 94.2344 120.508 94.2344C119.266 94.2344 118.234 93.875 117.414 93.1562C116.602 92.4375 116.195 91.5312 116.195 90.4375C116.195 89.0938 116.691 88.0625 117.684 87.3438C118.684 86.625 120.125 86.2617 122.008 86.2539H123.566V85.5273C123.566 84.9414 123.414 84.4727 123.109 84.1211C122.812 83.7695 122.34 83.5938 121.691 83.5938C121.121 83.5938 120.672 83.7305 120.344 84.0039C120.023 84.2773 119.863 84.6523 119.863 85.1289H116.477C116.477 84.3945 116.703 83.7148 117.156 83.0898C117.609 82.4648 118.25 81.9766 119.078 81.625C119.906 81.2656 120.836 81.0859 121.867 81.0859C123.43 81.0859 124.668 81.4805 125.582 82.2695C126.504 83.0508 126.965 84.1523 126.965 85.5742V91.0703C126.973 92.2734 127.141 93.1836 127.469 93.8008V94H124.047ZM121.246 91.6445C121.746 91.6445 122.207 91.5352 122.629 91.3164C123.051 91.0898 123.363 90.7891 123.566 90.4141V88.2344H122.301C120.605 88.2344 119.703 88.8203 119.594 89.9922L119.582 90.1914C119.582 90.6133 119.73 90.9609 120.027 91.2344C120.324 91.5078 120.73 91.6445 121.246 91.6445Z" fill="#E4E9ED"/>
</svg>
