<svg width="175" height="175" viewBox="0 0 175 175" fill="none" xmlns="http://www.w3.org/2000/svg">
<circle cx="87.5" cy="87.5" r="87.5" fill="#2B3C5B"/>
<path d="M72.0391 87.1758H79.5039V90H68.5234V72.9375H72.0391V87.1758ZM84.8828 90H81.4844V77.3203H84.8828V90ZM81.2852 74.0391C81.2852 73.5312 81.4531 73.1133 81.7891 72.7852C82.1328 72.457 82.5977 72.293 83.1836 72.293C83.7617 72.293 84.2227 72.457 84.5664 72.7852C84.9102 73.1133 85.082 73.5312 85.082 74.0391C85.082 74.5547 84.9062 74.9766 84.5547 75.3047C84.2109 75.6328 83.7539 75.7969 83.1836 75.7969C82.6133 75.7969 82.1523 75.6328 81.8008 75.3047C81.457 74.9766 81.2852 74.5547 81.2852 74.0391ZM88.6094 90V79.8047H86.7227V77.3203H88.6094V76.2422C88.6094 74.8203 89.0156 73.7188 89.8281 72.9375C90.6484 72.1484 91.793 71.7539 93.2617 71.7539C93.7305 71.7539 94.3047 71.832 94.9844 71.9883L94.9492 74.6133C94.668 74.543 94.3242 74.5078 93.918 74.5078C92.6445 74.5078 92.0078 75.1055 92.0078 76.3008V77.3203H94.5273V79.8047H92.0078V90H88.6094ZM101.84 90.2344C99.9805 90.2344 98.4648 89.6641 97.293 88.5234C96.1289 87.3828 95.5469 85.8633 95.5469 83.9648V83.6367C95.5469 82.3633 95.793 81.2266 96.2852 80.2266C96.7773 79.2188 97.4727 78.4453 98.3711 77.9062C99.2773 77.3594 100.309 77.0859 101.465 77.0859C103.199 77.0859 104.562 77.6328 105.555 78.7266C106.555 79.8203 107.055 81.3711 107.055 83.3789V84.7617H98.9805C99.0898 85.5898 99.418 86.2539 99.9648 86.7539C100.52 87.2539 101.219 87.5039 102.062 87.5039C103.367 87.5039 104.387 87.0312 105.121 86.0859L106.785 87.9492C106.277 88.668 105.59 89.2305 104.723 89.6367C103.855 90.0352 102.895 90.2344 101.84 90.2344ZM101.453 79.8281C100.781 79.8281 100.234 80.0547 99.8125 80.5078C99.3984 80.9609 99.1328 81.6094 99.0156 82.4531H103.727V82.1836C103.711 81.4336 103.508 80.8555 103.117 80.4492C102.727 80.0352 102.172 79.8281 101.453 79.8281Z" fill="#E4E9ED"/>
</svg>
