<svg width="175" height="175" viewBox="0 0 175 175" fill="none" xmlns="http://www.w3.org/2000/svg">
<circle cx="87.5" cy="87.5" r="87.5" fill="#2B3C5B"/>
<path d="M27.6748 88.79C27.5531 90.473 26.93 91.7979 25.8057 92.7646C24.6885 93.7314 23.2132 94.2148 21.3799 94.2148C19.3747 94.2148 17.7956 93.5417 16.6426 92.1953C15.4967 90.8418 14.9238 88.987 14.9238 86.6309V85.6748C14.9238 84.1709 15.1888 82.846 15.7188 81.7002C16.2487 80.5544 17.0042 79.6771 17.9854 79.0684C18.9736 78.4525 20.1195 78.1445 21.4229 78.1445C23.2275 78.1445 24.6813 78.6279 25.7842 79.5947C26.887 80.5615 27.5244 81.9186 27.6963 83.666H24.4736C24.3949 82.6562 24.112 81.9258 23.625 81.4746C23.1452 81.0163 22.4111 80.7871 21.4229 80.7871C20.3486 80.7871 19.543 81.1738 19.0059 81.9473C18.4759 82.7135 18.2038 83.9059 18.1895 85.5244V86.7061C18.1895 88.3962 18.4437 89.6315 18.9521 90.4121C19.4678 91.1927 20.277 91.583 21.3799 91.583C22.3753 91.583 23.1165 91.3574 23.6035 90.9062C24.0977 90.4479 24.3805 89.7425 24.4521 88.79H27.6748ZM36.3223 94C36.179 93.7207 36.0752 93.3734 36.0107 92.958C35.2588 93.7959 34.2812 94.2148 33.0781 94.2148C31.9395 94.2148 30.9941 93.8854 30.2422 93.2266C29.4974 92.5677 29.125 91.737 29.125 90.7344C29.125 89.5026 29.5798 88.5573 30.4893 87.8984C31.4059 87.2396 32.7272 86.9066 34.4531 86.8994H35.8818V86.2334C35.8818 85.6963 35.7422 85.2666 35.4629 84.9443C35.1908 84.6221 34.7575 84.4609 34.1631 84.4609C33.6403 84.4609 33.2285 84.5863 32.9277 84.8369C32.6341 85.0876 32.4873 85.4313 32.4873 85.8682H29.3828C29.3828 85.195 29.5905 84.5719 30.0059 83.999C30.4212 83.4261 31.0085 82.9785 31.7676 82.6562C32.5267 82.3268 33.3789 82.1621 34.3242 82.1621C35.7565 82.1621 36.8916 82.5238 37.7295 83.2471C38.5745 83.9632 38.9971 84.973 38.9971 86.2764V91.3145C39.0042 92.4173 39.1582 93.2516 39.459 93.8174V94H36.3223ZM33.7549 91.8408C34.2132 91.8408 34.6357 91.7406 35.0225 91.54C35.4092 91.3324 35.6956 91.0566 35.8818 90.7129V88.7148H34.7217C33.1676 88.7148 32.3405 89.252 32.2402 90.3262L32.2295 90.5088C32.2295 90.8955 32.3656 91.2142 32.6377 91.4648C32.9098 91.7155 33.2822 91.8408 33.7549 91.8408ZM44.6582 94H41.543V77.5H44.6582V94ZM50.502 94H47.3867V77.5H50.502V94ZM62.9629 78.3594L66.9805 89.7031L70.9766 78.3594H75.209V94H71.9756V89.7246L72.2979 82.3447L68.0762 94H65.8633L61.6523 82.3555L61.9746 89.7246V94H58.752V78.3594H62.9629ZM83.1689 94.2148C81.4645 94.2148 80.0752 93.6921 79.001 92.6465C77.9339 91.6009 77.4004 90.208 77.4004 88.4678V88.167C77.4004 86.9997 77.626 85.9577 78.0771 85.041C78.5283 84.1172 79.1657 83.4082 79.9893 82.9141C80.82 82.4128 81.7653 82.1621 82.8252 82.1621C84.415 82.1621 85.6647 82.6634 86.5742 83.666C87.4909 84.6686 87.9492 86.0902 87.9492 87.9307V89.1982H80.5479C80.6481 89.9574 80.9489 90.5661 81.4502 91.0244C81.9587 91.4827 82.5996 91.7119 83.373 91.7119C84.569 91.7119 85.5036 91.2786 86.1768 90.4121L87.7021 92.1201C87.2367 92.779 86.6064 93.2946 85.8115 93.667C85.0166 94.0322 84.1357 94.2148 83.1689 94.2148ZM82.8145 84.6758C82.1986 84.6758 81.6973 84.8835 81.3105 85.2988C80.931 85.7142 80.6875 86.3086 80.5801 87.082H84.8984V86.835C84.8841 86.1475 84.6979 85.6175 84.3398 85.2451C83.9818 84.8656 83.4733 84.6758 82.8145 84.6758ZM108.134 94H104.911V87.2969H98.627V94H95.4043V78.3594H98.627V84.6973H104.911V78.3594H108.134V94ZM117.716 92.8184C116.95 93.7493 115.89 94.2148 114.536 94.2148C113.29 94.2148 112.338 93.8568 111.679 93.1406C111.027 92.4245 110.694 91.3753 110.68 89.9932V82.377H113.784V89.8857C113.784 91.096 114.336 91.7012 115.438 91.7012C116.491 91.7012 117.215 91.3359 117.608 90.6055V82.377H120.724V94H117.802L117.716 92.8184ZM125.977 82.377L126.073 83.6768C126.897 82.667 128.01 82.1621 129.414 82.1621C130.911 82.1621 131.938 82.7529 132.497 83.9346C133.313 82.7529 134.477 82.1621 135.988 82.1621C137.249 82.1621 138.187 82.5309 138.803 83.2686C139.419 83.999 139.727 85.1019 139.727 86.5771V94H136.611V86.5879C136.611 85.929 136.482 85.4492 136.225 85.1484C135.967 84.8405 135.512 84.6865 134.86 84.6865C133.929 84.6865 133.285 85.1305 132.927 86.0186L132.938 94H129.833V86.5986C129.833 85.9255 129.701 85.4385 129.436 85.1377C129.171 84.8369 128.719 84.6865 128.082 84.6865C127.201 84.6865 126.564 85.0518 126.17 85.7822V94H123.065V82.377H125.977ZM148.857 94C148.714 93.7207 148.61 93.3734 148.546 92.958C147.794 93.7959 146.816 94.2148 145.613 94.2148C144.475 94.2148 143.529 93.8854 142.777 93.2266C142.033 92.5677 141.66 91.737 141.66 90.7344C141.66 89.5026 142.115 88.5573 143.024 87.8984C143.941 87.2396 145.262 86.9066 146.988 86.8994H148.417V86.2334C148.417 85.6963 148.277 85.2666 147.998 84.9443C147.726 84.6221 147.293 84.4609 146.698 84.4609C146.175 84.4609 145.764 84.5863 145.463 84.8369C145.169 85.0876 145.022 85.4313 145.022 85.8682H141.918C141.918 85.195 142.126 84.5719 142.541 83.999C142.956 83.4261 143.544 82.9785 144.303 82.6562C145.062 82.3268 145.914 82.1621 146.859 82.1621C148.292 82.1621 149.427 82.5238 150.265 83.2471C151.11 83.9632 151.532 84.973 151.532 86.2764V91.3145C151.539 92.4173 151.693 93.2516 151.994 93.8174V94H148.857ZM146.29 91.8408C146.748 91.8408 147.171 91.7406 147.558 91.54C147.944 91.3324 148.231 91.0566 148.417 90.7129V88.7148H147.257C145.703 88.7148 144.876 89.252 144.775 90.3262L144.765 90.5088C144.765 90.8955 144.901 91.2142 145.173 91.4648C145.445 91.7155 145.817 91.8408 146.29 91.8408ZM156.774 82.377L156.871 83.7197C157.702 82.6813 158.815 82.1621 160.212 82.1621C161.444 82.1621 162.36 82.5238 162.962 83.2471C163.563 83.9704 163.871 85.0518 163.886 86.4912V94H160.781V86.5664C160.781 85.9076 160.638 85.4313 160.352 85.1377C160.065 84.8369 159.589 84.6865 158.923 84.6865C158.049 84.6865 157.394 85.0589 156.957 85.8037V94H153.853V82.377H156.774Z" fill="#E4E9ED"/>
</svg>
