<svg width="175" height="175" viewBox="0 0 175 175" fill="none" xmlns="http://www.w3.org/2000/svg">
<circle cx="87.5" cy="87.5" r="87.5" fill="#2B3C5B"/>
<path d="M35.0234 92.8438C34.3906 93.6016 33.4961 94.1914 32.3398 94.6133C31.1836 95.0273 29.9023 95.2344 28.4961 95.2344C27.0195 95.2344 25.7227 94.9141 24.6055 94.2734C23.4961 93.625 22.6367 92.6875 22.0273 91.4609C21.4258 90.2344 21.1172 88.793 21.1016 87.1367V85.9766C21.1016 84.2734 21.3867 82.8008 21.957 81.5586C22.5352 80.3086 23.3633 79.3555 24.4414 78.6992C25.5273 78.0352 26.7969 77.7031 28.25 77.7031C30.2734 77.7031 31.8555 78.1875 32.9961 79.1562C34.1367 80.1172 34.8125 81.5195 35.0234 83.3633H31.6016C31.4453 82.3867 31.0977 81.6719 30.5586 81.2188C30.0273 80.7656 29.293 80.5391 28.3555 80.5391C27.1602 80.5391 26.25 80.9883 25.625 81.8867C25 82.7852 24.6836 84.1211 24.6758 85.8945V86.9844C24.6758 88.7734 25.0156 90.125 25.6953 91.0391C26.375 91.9531 27.3711 92.4102 28.6836 92.4102C30.0039 92.4102 30.9453 92.1289 31.5078 91.5664V88.625H28.3086V86.0352H35.0234V92.8438ZM44.7852 85.4961C44.3242 85.4336 43.918 85.4023 43.5664 85.4023C42.2852 85.4023 41.4453 85.8359 41.0469 86.7031V95H37.6602V82.3203H40.8594L40.9531 83.832C41.6328 82.668 42.5742 82.0859 43.7773 82.0859C44.1523 82.0859 44.5039 82.1367 44.832 82.2383L44.7852 85.4961ZM52.0273 95.2344C50.168 95.2344 48.6523 94.6641 47.4805 93.5234C46.3164 92.3828 45.7344 90.8633 45.7344 88.9648V88.6367C45.7344 87.3633 45.9805 86.2266 46.4727 85.2266C46.9648 84.2188 47.6602 83.4453 48.5586 82.9062C49.4648 82.3594 50.4961 82.0859 51.6523 82.0859C53.3867 82.0859 54.75 82.6328 55.7422 83.7266C56.7422 84.8203 57.2422 86.3711 57.2422 88.3789V89.7617H49.168C49.2773 90.5898 49.6055 91.2539 50.1523 91.7539C50.707 92.2539 51.4062 92.5039 52.25 92.5039C53.5547 92.5039 54.5742 92.0312 55.3086 91.0859L56.9727 92.9492C56.4648 93.668 55.7773 94.2305 54.9102 94.6367C54.043 95.0352 53.082 95.2344 52.0273 95.2344ZM51.6406 84.8281C50.9688 84.8281 50.4219 85.0547 50 85.5078C49.5859 85.9609 49.3203 86.6094 49.2031 87.4531H53.9141V87.1836C53.8984 86.4336 53.6953 85.8555 53.3047 85.4492C52.9141 85.0352 52.3594 84.8281 51.6406 84.8281ZM66.5234 95C66.3672 94.6953 66.2539 94.3164 66.1836 93.8633C65.3633 94.7773 64.2969 95.2344 62.9844 95.2344C61.7422 95.2344 60.7109 94.875 59.8906 94.1562C59.0781 93.4375 58.6719 92.5312 58.6719 91.4375C58.6719 90.0938 59.168 89.0625 60.1602 88.3438C61.1602 87.625 62.6016 87.2617 64.4844 87.2539H66.043V86.5273C66.043 85.9414 65.8906 85.4727 65.5859 85.1211C65.2891 84.7695 64.8164 84.5938 64.168 84.5938C63.5977 84.5938 63.1484 84.7305 62.8203 85.0039C62.5 85.2773 62.3398 85.6523 62.3398 86.1289H58.9531C58.9531 85.3945 59.1797 84.7148 59.6328 84.0898C60.0859 83.4648 60.7266 82.9766 61.5547 82.625C62.3828 82.2656 63.3125 82.0859 64.3438 82.0859C65.9062 82.0859 67.1445 82.4805 68.0586 83.2695C68.9805 84.0508 69.4414 85.1523 69.4414 86.5742V92.0703C69.4492 93.2734 69.6172 94.1836 69.9453 94.8008V95H66.5234ZM63.7227 92.6445C64.2227 92.6445 64.6836 92.5352 65.1055 92.3164C65.5273 92.0898 65.8398 91.7891 66.043 91.4141V89.2344H64.7773C63.082 89.2344 62.1797 89.8203 62.0703 90.9922L62.0586 91.1914C62.0586 91.6133 62.207 91.9609 62.5039 92.2344C62.8008 92.5078 63.207 92.6445 63.7227 92.6445ZM76.0977 79.2031V82.3203H78.2656V84.8047H76.0977V91.1328C76.0977 91.6016 76.1875 91.9375 76.3672 92.1406C76.5469 92.3438 76.8906 92.4453 77.3984 92.4453C77.7734 92.4453 78.1055 92.418 78.3945 92.3633V94.9297C77.7305 95.1328 77.0469 95.2344 76.3438 95.2344C73.9688 95.2344 72.7578 94.0352 72.7109 91.6367V84.8047H70.8594V82.3203H72.7109V79.2031H76.0977ZM99.8516 92.8438C99.2188 93.6016 98.3242 94.1914 97.168 94.6133C96.0117 95.0273 94.7305 95.2344 93.3242 95.2344C91.8477 95.2344 90.5508 94.9141 89.4336 94.2734C88.3242 93.625 87.4648 92.6875 86.8555 91.4609C86.2539 90.2344 85.9453 88.793 85.9297 87.1367V85.9766C85.9297 84.2734 86.2148 82.8008 86.7852 81.5586C87.3633 80.3086 88.1914 79.3555 89.2695 78.6992C90.3555 78.0352 91.625 77.7031 93.0781 77.7031C95.1016 77.7031 96.6836 78.1875 97.8242 79.1562C98.9648 80.1172 99.6406 81.5195 99.8516 83.3633H96.4297C96.2734 82.3867 95.9258 81.6719 95.3867 81.2188C94.8555 80.7656 94.1211 80.5391 93.1836 80.5391C91.9883 80.5391 91.0781 80.9883 90.4531 81.8867C89.8281 82.7852 89.5117 84.1211 89.5039 85.8945V86.9844C89.5039 88.7734 89.8438 90.125 90.5234 91.0391C91.2031 91.9531 92.1992 92.4102 93.5117 92.4102C94.832 92.4102 95.7734 92.1289 96.3359 91.5664V88.625H93.1367V86.0352H99.8516V92.8438ZM108.324 95.2344C106.465 95.2344 104.949 94.6641 103.777 93.5234C102.613 92.3828 102.031 90.8633 102.031 88.9648V88.6367C102.031 87.3633 102.277 86.2266 102.77 85.2266C103.262 84.2188 103.957 83.4453 104.855 82.9062C105.762 82.3594 106.793 82.0859 107.949 82.0859C109.684 82.0859 111.047 82.6328 112.039 83.7266C113.039 84.8203 113.539 86.3711 113.539 88.3789V89.7617H105.465C105.574 90.5898 105.902 91.2539 106.449 91.7539C107.004 92.2539 107.703 92.5039 108.547 92.5039C109.852 92.5039 110.871 92.0312 111.605 91.0859L113.27 92.9492C112.762 93.668 112.074 94.2305 111.207 94.6367C110.34 95.0352 109.379 95.2344 108.324 95.2344ZM107.938 84.8281C107.266 84.8281 106.719 85.0547 106.297 85.5078C105.883 85.9609 105.617 86.6094 105.5 87.4531H110.211V87.1836C110.195 86.4336 109.992 85.8555 109.602 85.4492C109.211 85.0352 108.656 84.8281 107.938 84.8281ZM119.527 79.2031V82.3203H121.695V84.8047H119.527V91.1328C119.527 91.6016 119.617 91.9375 119.797 92.1406C119.977 92.3438 120.32 92.4453 120.828 92.4453C121.203 92.4453 121.535 92.418 121.824 92.3633V94.9297C121.16 95.1328 120.477 95.2344 119.773 95.2344C117.398 95.2344 116.188 94.0352 116.141 91.6367V84.8047H114.289V82.3203H116.141V79.2031H119.527ZM130.449 91.4961C130.449 91.082 130.242 90.7578 129.828 90.5234C129.422 90.2812 128.766 90.0664 127.859 89.8789C124.844 89.2461 123.336 87.9648 123.336 86.0352C123.336 84.9102 123.801 83.9727 124.73 83.2227C125.668 82.4648 126.891 82.0859 128.398 82.0859C130.008 82.0859 131.293 82.4648 132.254 83.2227C133.223 83.9805 133.707 84.9648 133.707 86.1758H130.32C130.32 85.6914 130.164 85.293 129.852 84.9805C129.539 84.6602 129.051 84.5 128.387 84.5C127.816 84.5 127.375 84.6289 127.062 84.8867C126.75 85.1445 126.594 85.4727 126.594 85.8711C126.594 86.2461 126.77 86.5508 127.121 86.7852C127.48 87.0117 128.082 87.2109 128.926 87.3828C129.77 87.5469 130.48 87.7344 131.059 87.9453C132.848 88.6016 133.742 89.7383 133.742 91.3555C133.742 92.5117 133.246 93.4492 132.254 94.168C131.262 94.8789 129.98 95.2344 128.41 95.2344C127.348 95.2344 126.402 95.0469 125.574 94.6719C124.754 94.2891 124.109 93.7695 123.641 93.1133C123.172 92.4492 122.938 91.7344 122.938 90.9688H126.148C126.18 91.5703 126.402 92.0312 126.816 92.3516C127.23 92.6719 127.785 92.832 128.48 92.832C129.129 92.832 129.617 92.7109 129.945 92.4688C130.281 92.2188 130.449 91.8945 130.449 91.4961ZM147.359 88.7773C147.359 90.8086 146.926 92.3945 146.059 93.5352C145.191 94.668 143.98 95.2344 142.426 95.2344C141.051 95.2344 139.953 94.707 139.133 93.6523L138.98 95H135.934V77H139.32V83.457C140.102 82.543 141.129 82.0859 142.402 82.0859C143.949 82.0859 145.16 82.6562 146.035 83.7969C146.918 84.9297 147.359 86.5273 147.359 88.5898V88.7773ZM143.973 88.5312C143.973 87.25 143.77 86.3164 143.363 85.7305C142.957 85.1367 142.352 84.8398 141.547 84.8398C140.469 84.8398 139.727 85.2812 139.32 86.1641V91.168C139.734 92.0586 140.484 92.5039 141.57 92.5039C142.664 92.5039 143.383 91.9648 143.727 90.8867C143.891 90.3711 143.973 89.5859 143.973 88.5312ZM153.031 95H149.633V82.3203H153.031V95ZM149.434 79.0391C149.434 78.5312 149.602 78.1133 149.938 77.7852C150.281 77.457 150.746 77.293 151.332 77.293C151.91 77.293 152.371 77.457 152.715 77.7852C153.059 78.1133 153.23 78.5312 153.23 79.0391C153.23 79.5547 153.055 79.9766 152.703 80.3047C152.359 80.6328 151.902 80.7969 151.332 80.7969C150.762 80.7969 150.301 80.6328 149.949 80.3047C149.605 79.9766 149.434 79.5547 149.434 79.0391Z" fill="#E4E9ED"/>
</svg>
