<svg width="175" height="175" viewBox="0 0 175 175" fill="none" xmlns="http://www.w3.org/2000/svg">
<circle cx="87.5" cy="87.5" r="87.5" fill="#2B3C5B"/>
<path d="M61.5 97V79.9375H67.4766C69.5469 79.9375 71.1172 80.3359 72.1875 81.1328C73.2578 81.9219 73.793 83.082 73.793 84.6133C73.793 85.4492 73.5781 86.1875 73.1484 86.8281C72.7188 87.4609 72.1211 87.9258 71.3555 88.2227C72.2305 88.4414 72.918 88.8828 73.418 89.5469C73.9258 90.2109 74.1797 91.0234 74.1797 91.9844C74.1797 93.625 73.6562 94.8672 72.6094 95.7109C71.5625 96.5547 70.0703 96.9844 68.1328 97H61.5ZM65.0156 89.5703V94.1758H68.0273C68.8555 94.1758 69.5 93.9805 69.9609 93.5898C70.4297 93.1914 70.6641 92.6445 70.6641 91.9492C70.6641 90.3867 69.8555 89.5938 68.2383 89.5703H65.0156ZM65.0156 87.0859H67.6172C69.3906 87.0547 70.2773 86.3477 70.2773 84.9648C70.2773 84.1914 70.0508 83.6367 69.5977 83.3008C69.1523 82.957 68.4453 82.7852 67.4766 82.7852H65.0156V87.0859ZM83.9531 97C83.7969 96.6953 83.6836 96.3164 83.6133 95.8633C82.793 96.7773 81.7266 97.2344 80.4141 97.2344C79.1719 97.2344 78.1406 96.875 77.3203 96.1562C76.5078 95.4375 76.1016 94.5312 76.1016 93.4375C76.1016 92.0938 76.5977 91.0625 77.5898 90.3438C78.5898 89.625 80.0312 89.2617 81.9141 89.2539H83.4727V88.5273C83.4727 87.9414 83.3203 87.4727 83.0156 87.1211C82.7188 86.7695 82.2461 86.5938 81.5977 86.5938C81.0273 86.5938 80.5781 86.7305 80.25 87.0039C79.9297 87.2773 79.7695 87.6523 79.7695 88.1289H76.3828C76.3828 87.3945 76.6094 86.7148 77.0625 86.0898C77.5156 85.4648 78.1562 84.9766 78.9844 84.625C79.8125 84.2656 80.7422 84.0859 81.7734 84.0859C83.3359 84.0859 84.5742 84.4805 85.4883 85.2695C86.4102 86.0508 86.8711 87.1523 86.8711 88.5742V94.0703C86.8789 95.2734 87.0469 96.1836 87.375 96.8008V97H83.9531ZM81.1523 94.6445C81.6523 94.6445 82.1133 94.5352 82.5352 94.3164C82.957 94.0898 83.2695 93.7891 83.4727 93.4141V91.2344H82.207C80.5117 91.2344 79.6094 91.8203 79.5 92.9922L79.4883 93.1914C79.4883 93.6133 79.6367 93.9609 79.9336 94.2344C80.2305 94.5078 80.6367 94.6445 81.1523 94.6445ZM100.898 90.7773C100.898 92.8086 100.465 94.3945 99.5977 95.5352C98.7305 96.668 97.5195 97.2344 95.9648 97.2344C94.5898 97.2344 93.4922 96.707 92.6719 95.6523L92.5195 97H89.4727V79H92.8594V85.457C93.6406 84.543 94.668 84.0859 95.9414 84.0859C97.4883 84.0859 98.6992 84.6562 99.5742 85.7969C100.457 86.9297 100.898 88.5273 100.898 90.5898V90.7773ZM97.5117 90.5312C97.5117 89.25 97.3086 88.3164 96.9023 87.7305C96.4961 87.1367 95.8906 86.8398 95.0859 86.8398C94.0078 86.8398 93.2656 87.2812 92.8594 88.1641V93.168C93.2734 94.0586 94.0234 94.5039 95.1094 94.5039C96.2031 94.5039 96.9219 93.9648 97.2656 92.8867C97.4297 92.3711 97.5117 91.5859 97.5117 90.5312ZM108.832 97.2344C106.973 97.2344 105.457 96.6641 104.285 95.5234C103.121 94.3828 102.539 92.8633 102.539 90.9648V90.6367C102.539 89.3633 102.785 88.2266 103.277 87.2266C103.77 86.2188 104.465 85.4453 105.363 84.9062C106.27 84.3594 107.301 84.0859 108.457 84.0859C110.191 84.0859 111.555 84.6328 112.547 85.7266C113.547 86.8203 114.047 88.3711 114.047 90.3789V91.7617H105.973C106.082 92.5898 106.41 93.2539 106.957 93.7539C107.512 94.2539 108.211 94.5039 109.055 94.5039C110.359 94.5039 111.379 94.0312 112.113 93.0859L113.777 94.9492C113.27 95.668 112.582 96.2305 111.715 96.6367C110.848 97.0352 109.887 97.2344 108.832 97.2344ZM108.445 86.8281C107.773 86.8281 107.227 87.0547 106.805 87.5078C106.391 87.9609 106.125 88.6094 106.008 89.4531H110.719V89.1836C110.703 88.4336 110.5 87.8555 110.109 87.4492C109.719 87.0352 109.164 86.8281 108.445 86.8281ZM119.555 97H116.156V79H119.555V97Z" fill="#E4E9ED"/>
</svg>
