<svg width="175" height="175" viewBox="0 0 175 175" fill="none" xmlns="http://www.w3.org/2000/svg">
<circle cx="87.5" cy="87.5" r="87.5" fill="#2B3C5B"/>
<path d="M46.8672 90.1562L45.0391 92.125V97H41.5234V79.9375H45.0391V87.6719L46.5859 85.5508L50.9336 79.9375H55.2578L49.1992 87.5195L55.4336 97H51.25L46.8672 90.1562ZM60.1094 97H56.7109V79H60.1094V97ZM62.3828 90.543C62.3828 89.2852 62.625 88.1641 63.1094 87.1797C63.5938 86.1953 64.2891 85.4336 65.1953 84.8945C66.1094 84.3555 67.168 84.0859 68.3711 84.0859C70.082 84.0859 71.4766 84.6094 72.5547 85.6562C73.6406 86.7031 74.2461 88.125 74.3711 89.9219L74.3945 90.7891C74.3945 92.7344 73.8516 94.2969 72.7656 95.4766C71.6797 96.6484 70.2227 97.2344 68.3945 97.2344C66.5664 97.2344 65.1055 96.6484 64.0117 95.4766C62.9258 94.3047 62.3828 92.7109 62.3828 90.6953V90.543ZM65.7695 90.7891C65.7695 91.9922 65.9961 92.9141 66.4492 93.5547C66.9023 94.1875 67.5508 94.5039 68.3945 94.5039C69.2148 94.5039 69.8555 94.1914 70.3164 93.5664C70.7773 92.9336 71.0078 91.9258 71.0078 90.543C71.0078 89.3633 70.7773 88.4492 70.3164 87.8008C69.8555 87.1523 69.207 86.8281 68.3711 86.8281C67.543 86.8281 66.9023 87.1523 66.4492 87.8008C65.9961 88.4414 65.7695 89.4375 65.7695 90.7891ZM79.5977 84.3203L79.7031 85.7852C80.6094 84.6523 81.8242 84.0859 83.3477 84.0859C84.6914 84.0859 85.6914 84.4805 86.3477 85.2695C87.0039 86.0586 87.3398 87.2383 87.3555 88.8086V97H83.9688V88.8906C83.9688 88.1719 83.8125 87.6523 83.5 87.332C83.1875 87.0039 82.668 86.8398 81.9414 86.8398C80.9883 86.8398 80.2734 87.2461 79.7969 88.0586V97H76.4102V84.3203H79.5977ZM89.4062 90.5664C89.4062 88.5898 89.8477 87.0156 90.7305 85.8438C91.6211 84.6719 92.8359 84.0859 94.375 84.0859C95.6094 84.0859 96.6289 84.5469 97.4336 85.4688V79H100.832V97H97.7734L97.6094 95.6523C96.7656 96.707 95.6797 97.2344 94.3516 97.2344C92.8594 97.2344 91.6602 96.6484 90.7539 95.4766C89.8555 94.2969 89.4062 92.6602 89.4062 90.5664ZM92.793 90.8125C92.793 92 93 92.9102 93.4141 93.543C93.8281 94.1758 94.4297 94.4922 95.2188 94.4922C96.2656 94.4922 97.0039 94.0508 97.4336 93.168V88.1641C97.0117 87.2812 96.2812 86.8398 95.2422 86.8398C93.6094 86.8398 92.793 88.1641 92.793 90.8125ZM107.031 97H103.633V84.3203H107.031V97ZM103.434 81.0391C103.434 80.5312 103.602 80.1133 103.938 79.7852C104.281 79.457 104.746 79.293 105.332 79.293C105.91 79.293 106.371 79.457 106.715 79.7852C107.059 80.1133 107.23 80.5312 107.23 81.0391C107.23 81.5547 107.055 81.9766 106.703 82.3047C106.359 82.6328 105.902 82.7969 105.332 82.7969C104.762 82.7969 104.301 82.6328 103.949 82.3047C103.605 81.9766 103.434 81.5547 103.434 81.0391ZM114.438 91.9141L113.219 93.1328V97H109.832V79H113.219V88.9727L113.875 88.1289L117.121 84.3203H121.188L116.605 89.6055L121.586 97H117.695L114.438 91.9141ZM128.254 97.2344C126.395 97.2344 124.879 96.6641 123.707 95.5234C122.543 94.3828 121.961 92.8633 121.961 90.9648V90.6367C121.961 89.3633 122.207 88.2266 122.699 87.2266C123.191 86.2188 123.887 85.4453 124.785 84.9062C125.691 84.3594 126.723 84.0859 127.879 84.0859C129.613 84.0859 130.977 84.6328 131.969 85.7266C132.969 86.8203 133.469 88.3711 133.469 90.3789V91.7617H125.395C125.504 92.5898 125.832 93.2539 126.379 93.7539C126.934 94.2539 127.633 94.5039 128.477 94.5039C129.781 94.5039 130.801 94.0312 131.535 93.0859L133.199 94.9492C132.691 95.668 132.004 96.2305 131.137 96.6367C130.27 97.0352 129.309 97.2344 128.254 97.2344ZM127.867 86.8281C127.195 86.8281 126.648 87.0547 126.227 87.5078C125.812 87.9609 125.547 88.6094 125.43 89.4531H130.141V89.1836C130.125 88.4336 129.922 87.8555 129.531 87.4492C129.141 87.0352 128.586 86.8281 127.867 86.8281Z" fill="#E4E9ED"/>
</svg>
