<svg width="175" height="175" viewBox="0 0 175 175" fill="none" xmlns="http://www.w3.org/2000/svg">
<circle cx="87.5" cy="87.5" r="87.5" fill="#2B3C5B"/>
<path d="M25.5 97V79.9375H31.4766C33.5469 79.9375 35.1172 80.3359 36.1875 81.1328C37.2578 81.9219 37.793 83.082 37.793 84.6133C37.793 85.4492 37.5781 86.1875 37.1484 86.8281C36.7188 87.4609 36.1211 87.9258 35.3555 88.2227C36.2305 88.4414 36.918 88.8828 37.418 89.5469C37.9258 90.2109 38.1797 91.0234 38.1797 91.9844C38.1797 93.625 37.6562 94.8672 36.6094 95.7109C35.5625 96.5547 34.0703 96.9844 32.1328 97H25.5ZM29.0156 89.5703V94.1758H32.0273C32.8555 94.1758 33.5 93.9805 33.9609 93.5898C34.4297 93.1914 34.6641 92.6445 34.6641 91.9492C34.6641 90.3867 33.8555 89.5938 32.2383 89.5703H29.0156ZM29.0156 87.0859H31.6172C33.3906 87.0547 34.2773 86.3477 34.2773 84.9648C34.2773 84.1914 34.0508 83.6367 33.5977 83.3008C33.1523 82.957 32.4453 82.7852 31.4766 82.7852H29.0156V87.0859ZM46.4414 97.2344C44.582 97.2344 43.0664 96.6641 41.8945 95.5234C40.7305 94.3828 40.1484 92.8633 40.1484 90.9648V90.6367C40.1484 89.3633 40.3945 88.2266 40.8867 87.2266C41.3789 86.2188 42.0742 85.4453 42.9727 84.9062C43.8789 84.3594 44.9102 84.0859 46.0664 84.0859C47.8008 84.0859 49.1641 84.6328 50.1562 85.7266C51.1562 86.8203 51.6562 88.3711 51.6562 90.3789V91.7617H43.582C43.6914 92.5898 44.0195 93.2539 44.5664 93.7539C45.1211 94.2539 45.8203 94.5039 46.6641 94.5039C47.9688 94.5039 48.9883 94.0312 49.7227 93.0859L51.3867 94.9492C50.8789 95.668 50.1914 96.2305 49.3242 96.6367C48.457 97.0352 47.4961 97.2344 46.4414 97.2344ZM46.0547 86.8281C45.3828 86.8281 44.8359 87.0547 44.4141 87.5078C44 87.9609 43.7344 88.6094 43.6172 89.4531H48.3281V89.1836C48.3125 88.4336 48.1094 87.8555 47.7188 87.4492C47.3281 87.0352 46.7734 86.8281 46.0547 86.8281ZM58.1719 92.8633L60.5273 84.3203H64.0664L59.7891 97H56.5547L52.2773 84.3203H55.8164L58.1719 92.8633ZM71.2383 97.2344C69.3789 97.2344 67.8633 96.6641 66.6914 95.5234C65.5273 94.3828 64.9453 92.8633 64.9453 90.9648V90.6367C64.9453 89.3633 65.1914 88.2266 65.6836 87.2266C66.1758 86.2188 66.8711 85.4453 67.7695 84.9062C68.6758 84.3594 69.707 84.0859 70.8633 84.0859C72.5977 84.0859 73.9609 84.6328 74.9531 85.7266C75.9531 86.8203 76.4531 88.3711 76.4531 90.3789V91.7617H68.3789C68.4883 92.5898 68.8164 93.2539 69.3633 93.7539C69.918 94.2539 70.6172 94.5039 71.4609 94.5039C72.7656 94.5039 73.7852 94.0312 74.5195 93.0859L76.1836 94.9492C75.6758 95.668 74.9883 96.2305 74.1211 96.6367C73.2539 97.0352 72.293 97.2344 71.2383 97.2344ZM70.8516 86.8281C70.1797 86.8281 69.6328 87.0547 69.2109 87.5078C68.7969 87.9609 68.5312 88.6094 68.4141 89.4531H73.125V89.1836C73.1094 88.4336 72.9062 87.8555 72.5156 87.4492C72.125 87.0352 71.5703 86.8281 70.8516 86.8281ZM85.5117 87.4961C85.0508 87.4336 84.6445 87.4023 84.293 87.4023C83.0117 87.4023 82.1719 87.8359 81.7734 88.7031V97H78.3867V84.3203H81.5859L81.6797 85.832C82.3594 84.668 83.3008 84.0859 84.5039 84.0859C84.8789 84.0859 85.2305 84.1367 85.5586 84.2383L85.5117 87.4961ZM90.7266 97H87.3281V79H90.7266V97ZM98.2617 92.207L100.605 84.3203H104.238L99.1406 98.9688L98.8594 99.6367C98.1016 101.293 96.8516 102.121 95.1094 102.121C94.6172 102.121 94.1172 102.047 93.6094 101.898V99.332L94.125 99.3438C94.7656 99.3438 95.2422 99.2461 95.5547 99.0508C95.875 98.8555 96.125 98.5312 96.3047 98.0781L96.7031 97.0352L92.2617 84.3203H95.9062L98.2617 92.207ZM125.66 97H122.145V89.6875H115.289V97H111.773V79.9375H115.289V86.8516H122.145V79.9375H125.66V97ZM132.094 97H128.695V84.3203H132.094V97ZM128.496 81.0391C128.496 80.5312 128.664 80.1133 129 79.7852C129.344 79.457 129.809 79.293 130.395 79.293C130.973 79.293 131.434 79.457 131.777 79.7852C132.121 80.1133 132.293 80.5312 132.293 81.0391C132.293 81.5547 132.117 81.9766 131.766 82.3047C131.422 82.6328 130.965 82.7969 130.395 82.7969C129.824 82.7969 129.363 82.6328 129.012 82.3047C128.668 81.9766 128.496 81.5547 128.496 81.0391ZM138.469 97H135.07V79H138.469V97ZM144.844 97H141.445V79H144.844V97ZM154.512 93.4961C154.512 93.082 154.305 92.7578 153.891 92.5234C153.484 92.2812 152.828 92.0664 151.922 91.8789C148.906 91.2461 147.398 89.9648 147.398 88.0352C147.398 86.9102 147.863 85.9727 148.793 85.2227C149.73 84.4648 150.953 84.0859 152.461 84.0859C154.07 84.0859 155.355 84.4648 156.316 85.2227C157.285 85.9805 157.77 86.9648 157.77 88.1758H154.383C154.383 87.6914 154.227 87.293 153.914 86.9805C153.602 86.6602 153.113 86.5 152.449 86.5C151.879 86.5 151.438 86.6289 151.125 86.8867C150.812 87.1445 150.656 87.4727 150.656 87.8711C150.656 88.2461 150.832 88.5508 151.184 88.7852C151.543 89.0117 152.145 89.2109 152.988 89.3828C153.832 89.5469 154.543 89.7344 155.121 89.9453C156.91 90.6016 157.805 91.7383 157.805 93.3555C157.805 94.5117 157.309 95.4492 156.316 96.168C155.324 96.8789 154.043 97.2344 152.473 97.2344C151.41 97.2344 150.465 97.0469 149.637 96.6719C148.816 96.2891 148.172 95.7695 147.703 95.1133C147.234 94.4492 147 93.7344 147 92.9688H150.211C150.242 93.5703 150.465 94.0312 150.879 94.3516C151.293 94.6719 151.848 94.832 152.543 94.832C153.191 94.832 153.68 94.7109 154.008 94.4688C154.344 94.2188 154.512 93.8945 154.512 93.4961Z" fill="#E4E9ED"/>
</svg>
