<svg width="175" height="175" viewBox="0 0 175 175" fill="none" xmlns="http://www.w3.org/2000/svg">
<circle cx="87.5" cy="87.5" r="87.5" fill="#2B3C5B"/>
<path d="M54.3672 82.7852H49.1406V97H45.625V82.7852H40.4688V79.9375H54.3672V82.7852ZM53.1953 90.543C53.1953 89.2852 53.4375 88.1641 53.9219 87.1797C54.4062 86.1953 55.1016 85.4336 56.0078 84.8945C56.9219 84.3555 57.9805 84.0859 59.1836 84.0859C60.8945 84.0859 62.2891 84.6094 63.3672 85.6562C64.4531 86.7031 65.0586 88.125 65.1836 89.9219L65.207 90.7891C65.207 92.7344 64.6641 94.2969 63.5781 95.4766C62.4922 96.6484 61.0352 97.2344 59.207 97.2344C57.3789 97.2344 55.918 96.6484 54.8242 95.4766C53.7383 94.3047 53.1953 92.7109 53.1953 90.6953V90.543ZM56.582 90.7891C56.582 91.9922 56.8086 92.9141 57.2617 93.5547C57.7148 94.1875 58.3633 94.5039 59.207 94.5039C60.0273 94.5039 60.668 94.1914 61.1289 93.5664C61.5898 92.9336 61.8203 91.9258 61.8203 90.543C61.8203 89.3633 61.5898 88.4492 61.1289 87.8008C60.668 87.1523 60.0195 86.8281 59.1836 86.8281C58.3555 86.8281 57.7148 87.1523 57.2617 87.8008C56.8086 88.4414 56.582 89.4375 56.582 90.7891ZM66.8008 90.5664C66.8008 88.6211 67.2617 87.0547 68.1836 85.8672C69.1133 84.6797 70.3633 84.0859 71.9336 84.0859C73.3242 84.0859 74.4062 84.5625 75.1797 85.5156L75.3203 84.3203H78.3906V96.5781C78.3906 97.6875 78.1367 98.6523 77.6289 99.4727C77.1289 100.293 76.4219 100.918 75.5078 101.348C74.5938 101.777 73.5234 101.992 72.2969 101.992C71.3672 101.992 70.4609 101.805 69.5781 101.43C68.6953 101.062 68.0273 100.586 67.5742 100L69.0742 97.9375C69.918 98.8828 70.9414 99.3555 72.1445 99.3555C73.043 99.3555 73.7422 99.1133 74.2422 98.6289C74.7422 98.1523 74.9922 97.4727 74.9922 96.5898V95.9102C74.2109 96.793 73.1836 97.2344 71.9102 97.2344C70.3867 97.2344 69.1523 96.6406 68.207 95.4531C67.2695 94.2578 66.8008 92.6758 66.8008 90.707V90.5664ZM70.1875 90.8125C70.1875 91.9609 70.418 92.8633 70.8789 93.5195C71.3398 94.168 71.9727 94.4922 72.7773 94.4922C73.8086 94.4922 74.5469 94.1055 74.9922 93.332V88C74.5391 87.2266 73.8086 86.8398 72.8008 86.8398C71.9883 86.8398 71.3477 87.1719 70.8789 87.8359C70.418 88.5 70.1875 89.4922 70.1875 90.8125ZM86.8398 97.2344C84.9805 97.2344 83.4648 96.6641 82.293 95.5234C81.1289 94.3828 80.5469 92.8633 80.5469 90.9648V90.6367C80.5469 89.3633 80.793 88.2266 81.2852 87.2266C81.7773 86.2188 82.4727 85.4453 83.3711 84.9062C84.2773 84.3594 85.3086 84.0859 86.4648 84.0859C88.1992 84.0859 89.5625 84.6328 90.5547 85.7266C91.5547 86.8203 92.0547 88.3711 92.0547 90.3789V91.7617H83.9805C84.0898 92.5898 84.418 93.2539 84.9648 93.7539C85.5195 94.2539 86.2188 94.5039 87.0625 94.5039C88.3672 94.5039 89.3867 94.0312 90.1211 93.0859L91.7852 94.9492C91.2773 95.668 90.5898 96.2305 89.7227 96.6367C88.8555 97.0352 87.8945 97.2344 86.8398 97.2344ZM86.4531 86.8281C85.7812 86.8281 85.2344 87.0547 84.8125 87.5078C84.3984 87.9609 84.1328 88.6094 84.0156 89.4531H88.7266V89.1836C88.7109 88.4336 88.5078 87.8555 88.1172 87.4492C87.7266 87.0352 87.1719 86.8281 86.4531 86.8281ZM98.043 81.2031V84.3203H100.211V86.8047H98.043V93.1328C98.043 93.6016 98.1328 93.9375 98.3125 94.1406C98.4922 94.3438 98.8359 94.4453 99.3438 94.4453C99.7188 94.4453 100.051 94.418 100.34 94.3633V96.9297C99.6758 97.1328 98.9922 97.2344 98.2891 97.2344C95.9141 97.2344 94.7031 96.0352 94.6562 93.6367V86.8047H92.8047V84.3203H94.6562V81.2031H98.043ZM105.402 85.7031C106.301 84.625 107.43 84.0859 108.789 84.0859C111.539 84.0859 112.934 85.6836 112.973 88.8789V97H109.586V88.9727C109.586 88.2461 109.43 87.7109 109.117 87.3672C108.805 87.0156 108.285 86.8398 107.559 86.8398C106.566 86.8398 105.848 87.2227 105.402 87.9883V97H102.016V79H105.402V85.7031ZM121.363 97.2344C119.504 97.2344 117.988 96.6641 116.816 95.5234C115.652 94.3828 115.07 92.8633 115.07 90.9648V90.6367C115.07 89.3633 115.316 88.2266 115.809 87.2266C116.301 86.2188 116.996 85.4453 117.895 84.9062C118.801 84.3594 119.832 84.0859 120.988 84.0859C122.723 84.0859 124.086 84.6328 125.078 85.7266C126.078 86.8203 126.578 88.3711 126.578 90.3789V91.7617H118.504C118.613 92.5898 118.941 93.2539 119.488 93.7539C120.043 94.2539 120.742 94.5039 121.586 94.5039C122.891 94.5039 123.91 94.0312 124.645 93.0859L126.309 94.9492C125.801 95.668 125.113 96.2305 124.246 96.6367C123.379 97.0352 122.418 97.2344 121.363 97.2344ZM120.977 86.8281C120.305 86.8281 119.758 87.0547 119.336 87.5078C118.922 87.9609 118.656 88.6094 118.539 89.4531H123.25V89.1836C123.234 88.4336 123.031 87.8555 122.641 87.4492C122.25 87.0352 121.695 86.8281 120.977 86.8281ZM135.637 87.4961C135.176 87.4336 134.77 87.4023 134.418 87.4023C133.137 87.4023 132.297 87.8359 131.898 88.7031V97H128.512V84.3203H131.711L131.805 85.832C132.484 84.668 133.426 84.0859 134.629 84.0859C135.004 84.0859 135.355 84.1367 135.684 84.2383L135.637 87.4961Z" fill="#E4E9ED"/>
</svg>
