<svg width="175" height="175" viewBox="0 0 175 175" fill="none" xmlns="http://www.w3.org/2000/svg">
<circle cx="87.5" cy="87.5" r="87.5" fill="#2B3C5B"/>
<path d="M64.4219 94H60.8945V79.7852H54.0625V94H50.5469V76.9375H64.4219V94ZM77.8164 84.0391H73.75V94H70.3516V84.0391H66.3555V81.3203H77.8164V84.0391ZM87.168 81.3203H90.5547V94H87.168V86.1719L82.9258 94H79.5273V81.3203H82.9258V89.1367L87.168 81.3203ZM103.832 94H100.445V90.0156C99.8125 90.1328 99.2227 90.1914 98.6758 90.1914C96.7617 90.1914 95.3203 89.7852 94.3516 88.9727C93.3828 88.1602 92.8906 86.9727 92.875 85.4102V81.3203H96.2617V85.4102C96.2695 86.1445 96.4492 86.6719 96.8008 86.9922C97.1523 87.3047 97.7773 87.4609 98.6758 87.4609C99.2383 87.4609 99.8281 87.3945 100.445 87.2617V81.3203H103.832V94ZM111.402 89.3242H110.043V94H106.656V81.3203H110.043V86.0898H111.25L114.016 81.3203H118.293L114.145 87.3555L118.68 94H114.168L111.402 89.3242ZM127.305 94C127.148 93.6953 127.035 93.3164 126.965 92.8633C126.145 93.7773 125.078 94.2344 123.766 94.2344C122.523 94.2344 121.492 93.875 120.672 93.1562C119.859 92.4375 119.453 91.5312 119.453 90.4375C119.453 89.0938 119.949 88.0625 120.941 87.3438C121.941 86.625 123.383 86.2617 125.266 86.2539H126.824V85.5273C126.824 84.9414 126.672 84.4727 126.367 84.1211C126.07 83.7695 125.598 83.5938 124.949 83.5938C124.379 83.5938 123.93 83.7305 123.602 84.0039C123.281 84.2773 123.121 84.6523 123.121 85.1289H119.734C119.734 84.3945 119.961 83.7148 120.414 83.0898C120.867 82.4648 121.508 81.9766 122.336 81.625C123.164 81.2656 124.094 81.0859 125.125 81.0859C126.688 81.0859 127.926 81.4805 128.84 82.2695C129.762 83.0508 130.223 84.1523 130.223 85.5742V91.0703C130.23 92.2734 130.398 93.1836 130.727 93.8008V94H127.305ZM124.504 91.6445C125.004 91.6445 125.465 91.5352 125.887 91.3164C126.309 91.0898 126.621 90.7891 126.824 90.4141V88.2344H125.559C123.863 88.2344 122.961 88.8203 122.852 89.9922L122.84 90.1914C122.84 90.6133 122.988 90.9609 123.285 91.2344C123.582 91.5078 123.988 91.6445 124.504 91.6445Z" fill="#E4E9ED"/>
</svg>
