<svg width="175" height="175" viewBox="0 0 175 175" fill="none" xmlns="http://www.w3.org/2000/svg">
<circle cx="87.5" cy="87.5" r="87.5" fill="#2B3C5B"/>
<path d="M63.0742 91H59.5586V73.9375H63.0742V91ZM69.2383 78.3203L69.3438 79.7852C70.25 78.6523 71.4648 78.0859 72.9883 78.0859C74.332 78.0859 75.332 78.4805 75.9883 79.2695C76.6445 80.0586 76.9805 81.2383 76.9961 82.8086V91H73.6094V82.8906C73.6094 82.1719 73.4531 81.6523 73.1406 81.332C72.8281 81.0039 72.3086 80.8398 71.582 80.8398C70.6289 80.8398 69.9141 81.2461 69.4375 82.0586V91H66.0508V78.3203H69.2383ZM83.6289 75.2031V78.3203H85.7969V80.8047H83.6289V87.1328C83.6289 87.6016 83.7188 87.9375 83.8984 88.1406C84.0781 88.3438 84.4219 88.4453 84.9297 88.4453C85.3047 88.4453 85.6367 88.418 85.9258 88.3633V90.9297C85.2617 91.1328 84.5781 91.2344 83.875 91.2344C81.5 91.2344 80.2891 90.0352 80.2422 87.6367V80.8047H78.3906V78.3203H80.2422V75.2031H83.6289ZM94.8086 81.4961C94.3477 81.4336 93.9414 81.4023 93.5898 81.4023C92.3086 81.4023 91.4688 81.8359 91.0703 82.7031V91H87.6836V78.3203H90.8828L90.9766 79.832C91.6562 78.668 92.5977 78.0859 93.8008 78.0859C94.1758 78.0859 94.5273 78.1367 94.8555 78.2383L94.8086 81.4961ZM100.023 91H96.625V78.3203H100.023V91ZM96.4258 75.0391C96.4258 74.5312 96.5938 74.1133 96.9297 73.7852C97.2734 73.457 97.7383 73.293 98.3242 73.293C98.9023 73.293 99.3633 73.457 99.707 73.7852C100.051 74.1133 100.223 74.5312 100.223 75.0391C100.223 75.5547 100.047 75.9766 99.6953 76.3047C99.3516 76.6328 98.8945 76.7969 98.3242 76.7969C97.7539 76.7969 97.293 76.6328 96.9414 76.3047C96.5977 75.9766 96.4258 75.5547 96.4258 75.0391ZM102.332 84.5664C102.332 82.6211 102.793 81.0547 103.715 79.8672C104.645 78.6797 105.895 78.0859 107.465 78.0859C108.855 78.0859 109.938 78.5625 110.711 79.5156L110.852 78.3203H113.922V90.5781C113.922 91.6875 113.668 92.6523 113.16 93.4727C112.66 94.293 111.953 94.918 111.039 95.3477C110.125 95.7773 109.055 95.9922 107.828 95.9922C106.898 95.9922 105.992 95.8047 105.109 95.4297C104.227 95.0625 103.559 94.5859 103.105 94L104.605 91.9375C105.449 92.8828 106.473 93.3555 107.676 93.3555C108.574 93.3555 109.273 93.1133 109.773 92.6289C110.273 92.1523 110.523 91.4727 110.523 90.5898V89.9102C109.742 90.793 108.715 91.2344 107.441 91.2344C105.918 91.2344 104.684 90.6406 103.738 89.4531C102.801 88.2578 102.332 86.6758 102.332 84.707V84.5664ZM105.719 84.8125C105.719 85.9609 105.949 86.8633 106.41 87.5195C106.871 88.168 107.504 88.4922 108.309 88.4922C109.34 88.4922 110.078 88.1055 110.523 87.332V82C110.07 81.2266 109.34 80.8398 108.332 80.8398C107.52 80.8398 106.879 81.1719 106.41 81.8359C105.949 82.5 105.719 83.4922 105.719 84.8125ZM123.883 91C123.727 90.6953 123.613 90.3164 123.543 89.8633C122.723 90.7773 121.656 91.2344 120.344 91.2344C119.102 91.2344 118.07 90.875 117.25 90.1562C116.438 89.4375 116.031 88.5312 116.031 87.4375C116.031 86.0938 116.527 85.0625 117.52 84.3438C118.52 83.625 119.961 83.2617 121.844 83.2539H123.402V82.5273C123.402 81.9414 123.25 81.4727 122.945 81.1211C122.648 80.7695 122.176 80.5938 121.527 80.5938C120.957 80.5938 120.508 80.7305 120.18 81.0039C119.859 81.2773 119.699 81.6523 119.699 82.1289H116.312C116.312 81.3945 116.539 80.7148 116.992 80.0898C117.445 79.4648 118.086 78.9766 118.914 78.625C119.742 78.2656 120.672 78.0859 121.703 78.0859C123.266 78.0859 124.504 78.4805 125.418 79.2695C126.34 80.0508 126.801 81.1523 126.801 82.5742V88.0703C126.809 89.2734 126.977 90.1836 127.305 90.8008V91H123.883ZM121.082 88.6445C121.582 88.6445 122.043 88.5352 122.465 88.3164C122.887 88.0898 123.199 87.7891 123.402 87.4141V85.2344H122.137C120.441 85.2344 119.539 85.8203 119.43 86.9922L119.418 87.1914C119.418 87.6133 119.566 87.9609 119.863 88.2344C120.16 88.5078 120.566 88.6445 121.082 88.6445Z" fill="#E4E9ED"/>
</svg>
