<?xml version="1.0" encoding="UTF-8" standalone="no"?> <svg width="30" height="30" viewBox="0 0 64 64" fill="none" xmlns="http://www.w3.org/2000/svg">
<path d="M39.9998 56.0493C39.1178 56.048 38.2519 55.8134 37.4898 55.3693L4.48984 36.3693C3.72509 35.9319 3.08952 35.3001 2.64749 34.5379C2.20546 33.7758 1.97266 32.9104 1.97266 32.0293C1.97266 31.1483 2.20546 30.2829 2.64749 29.5208C3.08952 28.7586 3.72509 28.1268 4.48984 27.6893L37.4898 8.68935C38.2487 8.24886 39.1101 8.01584 39.9876 8.01369C40.865 8.01153 41.7276 8.24033 42.4886 8.67708C43.2497 9.11384 43.8824 9.74317 44.3231 10.5019C44.7639 11.2606 44.9973 12.1219 44.9998 12.9993V17.5993C44.9998 18.1298 44.7891 18.6385 44.4141 19.0136C44.039 19.3886 43.5303 19.5993 42.9998 19.5993C42.4694 19.5993 41.9607 19.3886 41.5856 19.0136C41.2105 18.6385 40.9998 18.1298 40.9998 17.5993V12.9993C41.0005 12.8231 40.9547 12.6499 40.8669 12.4971C40.7791 12.3443 40.6524 12.2175 40.4998 12.1293C40.3478 12.0416 40.1754 11.9954 39.9998 11.9954C39.8243 11.9954 39.6519 12.0416 39.4998 12.1293L6.49984 31.1293C6.34108 31.215 6.20847 31.3421 6.11604 31.497C6.02361 31.6519 5.97481 31.8289 5.97481 32.0093C5.97481 32.1897 6.02361 32.3668 6.11604 32.5217C6.20847 32.6766 6.34108 32.8037 6.49984 32.8893L39.4998 51.8893C39.6519 51.9771 39.8243 52.0233 39.9998 52.0233C40.1754 52.0233 40.3478 51.9771 40.4998 51.8893C40.6554 51.7996 40.784 51.6696 40.872 51.513C40.9599 51.3563 41.0041 51.1789 40.9998 50.9993V46.3993C40.9998 45.8689 41.2105 45.3602 41.5856 44.9851C41.9607 44.6101 42.4694 44.3993 42.9998 44.3993C43.5303 44.3993 44.039 44.6101 44.4141 44.9851C44.7891 45.3602 44.9998 45.8689 44.9998 46.3993V50.9993C44.9998 52.3254 44.4731 53.5972 43.5354 54.5349C42.5977 55.4726 41.3259 55.9993 39.9998 55.9993V56.0493Z" fill="url(#paint0_linear_206_9111)"/>
<path d="M60.0001 20.9998C60.5305 20.9998 61.0392 20.7891 61.4143 20.414C61.7894 20.0389 62.0001 19.5302 62.0001 18.9998V12.9998C62.0021 12.1192 61.7715 11.2536 61.3316 10.4907C60.8917 9.72785 60.2582 9.09467 59.495 8.65524C58.7319 8.21582 57.8662 7.98575 56.9856 7.9883C56.105 7.99085 55.2407 8.22594 54.4801 8.66977L21.4801 27.6698C20.7153 28.1073 20.0798 28.7391 19.6377 29.5012C19.1957 30.2633 18.9629 31.1287 18.9629 32.0098C18.9629 32.8908 19.1957 33.7562 19.6377 34.5183C20.0798 35.2805 20.7153 35.9123 21.4801 36.3498L54.4801 55.3498C55.2421 55.7945 56.1083 56.0296 56.9906 56.0313C57.8729 56.033 58.74 55.8012 59.5038 55.3594C60.2675 54.9176 60.9008 54.2815 61.3392 53.5158C61.7776 52.7502 62.0056 51.8821 62.0001 50.9998V44.9998C62.0001 44.4693 61.7894 43.9606 61.4143 43.5856C61.0392 43.2105 60.5305 42.9998 60.0001 42.9998C57.0827 42.9998 54.2848 41.8408 52.2219 39.7779C50.159 37.715 49.0001 34.9172 49.0001 31.9998C49.0001 29.0824 50.159 26.2845 52.2219 24.2216C54.2848 22.1587 57.0827 20.9998 60.0001 20.9998V20.9998ZM45.0001 31.9998C45.004 35.6288 46.3234 39.1334 48.7138 41.864C51.1042 44.5945 54.4034 46.3659 58.0001 46.8498V50.9998C58.0008 51.176 57.9549 51.3492 57.8671 51.502C57.7793 51.6548 57.6527 51.7817 57.5001 51.8698C57.348 51.9575 57.1756 52.0037 57.0001 52.0037C56.8245 52.0037 56.6521 51.9575 56.5001 51.8698L23.5001 32.8698C23.3413 32.7841 23.2087 32.6571 23.1163 32.5021C23.0238 32.3472 22.975 32.1702 22.975 31.9898C22.975 31.8094 23.0238 31.6323 23.1163 31.4774C23.2087 31.3225 23.3413 31.1955 23.5001 31.1098L56.5001 12.1098C56.6521 12.022 56.8245 11.9758 57.0001 11.9758C57.1756 11.9758 57.348 12.022 57.5001 12.1098C57.6557 12.1995 57.7842 12.3296 57.8722 12.4862C57.9602 12.6428 58.0043 12.8202 58.0001 12.9998V17.1898C54.4102 17.6727 51.1164 19.4383 48.7269 22.1605C46.3374 24.8827 45.0136 28.3776 45.0001 31.9998Z" fill="black"/>
<defs>
<linearGradient id="paint0_linear_206_9111" x1="1.99984" y1="31.9993" x2="44.9998" y2="31.9993" gradientUnits="userSpaceOnUse">
<stop stop-color="#2357FF"/>
<stop offset="0.38" stop-color="#1B6FF6"/>
<stop offset="1" stop-color="#0B9EE3"/>
</linearGradient>
</defs>
</svg>
