<?xml version="1.0" encoding="iso-8859-1"?>
<!-- Generator: Adobe Illustrator 19.0.0, SVG Export Plug-In . SVG Version: 6.00 Build 0)  -->
<svg version="1.1" id="Capa_1" xmlns="http://www.w3.org/2000/svg" xmlns:xlink="http://www.w3.org/1999/xlink"
	 viewBox="0 0 512 512" style="enable-background:new 0 0 512 512;" xml:space="preserve">
<g>
	<g>
		<path d="M413.343,98.657C371.316,56.628,315.437,33.483,256,33.483S140.684,56.628,98.657,98.657
			C56.628,140.684,33.483,196.563,33.483,256s23.145,115.316,65.174,157.343c42.028,42.029,97.907,65.174,157.343,65.174
			c59.436,0,115.316-23.145,157.343-65.174c42.029-42.028,65.174-97.907,65.174-157.343
			C478.517,196.563,455.372,140.684,413.343,98.657z M256,463.309c-114.311,0-207.309-92.998-207.309-207.309
			S141.689,48.691,256,48.691S463.309,141.689,463.309,256S370.311,463.309,256,463.309z"/>
	</g>
</g>
<g>
	<g>
		<path d="M437.019,74.981C388.668,26.629,324.38,0,256,0c-42.578,0-84.742,10.667-121.931,30.849
			c-3.691,2.003-5.059,6.618-3.057,10.31c2.002,3.69,6.616,5.058,10.31,3.057C176.292,25.239,215.947,15.208,256,15.208
			c132.773,0,240.792,108.019,240.792,240.792S388.773,496.792,256,496.792S15.208,388.773,15.208,256
			c0-67.074,26.906-129.346,75.761-175.345c3.058-2.878,3.203-7.691,0.323-10.749c-2.879-3.059-7.69-3.203-10.749-0.323
			c-25.162,23.693-44.967,51.67-58.863,83.158C7.295,185.34,0,220.082,0,256c0,68.38,26.629,132.668,74.981,181.019
			S187.62,512,256,512s132.668-26.629,181.019-74.981C485.37,388.667,512,324.38,512,256S485.371,123.332,437.019,74.981z"/>
	</g>
</g>
<g>
	<g>
		<path d="M230.653,152.755h-58.804c-4.199,0-7.604,3.405-7.604,7.604v29.74c0,4.199,3.405,7.604,7.604,7.604
			c4.199,0,7.604-3.405,7.604-7.604v-22.136h43.596v174.722h-43.596v-87.361c0-4.199-3.405-7.604-7.604-7.604
			c-4.199,0-7.604,3.405-7.604,7.604v94.965c0,4.199,3.405,7.604,7.604,7.604h58.804c4.199,0,7.604-3.405,7.604-7.604v-189.93
			C238.257,156.16,234.853,152.755,230.653,152.755z"/>
	</g>
</g>
<g>
	<g>
		<path d="M335.396,152.755h-58.804c-4.199,0-7.604,3.405-7.604,7.604v116.932c0,4.199,3.405,7.604,7.604,7.604
			c4.199,0,7.604-3.405,7.604-7.604V167.963h43.596v174.722h-43.596V337.7c0-4.199-3.405-7.604-7.604-7.604
			c-4.199,0-7.604,3.405-7.604,7.604v12.589c0,4.199,3.404,7.604,7.604,7.604h58.804c4.199,0,7.604-3.405,7.604-7.604v-189.93
			C343,156.16,339.596,152.755,335.396,152.755z"/>
	</g>
</g>
<g>
</g>
<g>
</g>
<g>
</g>
<g>
</g>
<g>
</g>
<g>
</g>
<g>
</g>
<g>
</g>
<g>
</g>
<g>
</g>
<g>
</g>
<g>
</g>
<g>
</g>
<g>
</g>
<g>
</g>
</svg>
