<?xml version="1.0" encoding="UTF-8" standalone="no"?> <svg width="30" height="30" viewBox="0 0 64 64" fill="none" xmlns="http://www.w3.org/2000/svg">
<path d="M24 56.0498C22.6739 56.0498 21.4022 55.523 20.4645 54.5853C19.5268 53.6476 19 52.3759 19 51.0498V46.4498C19 45.9193 19.2107 45.4106 19.5858 45.0356C19.9609 44.6605 20.4696 44.4498 21 44.4498C21.5304 44.4498 22.0392 44.6605 22.4142 45.0356C22.7893 45.4106 23 45.9193 23 46.4498V50.9998C22.9993 51.176 23.0452 51.3492 23.133 51.502C23.2208 51.6548 23.3474 51.7817 23.5 51.8698C23.652 51.9575 23.8245 52.0037 24 52.0037C24.1756 52.0037 24.348 51.9575 24.5 51.8698L57.5 32.8698C57.6588 32.7841 57.7914 32.6571 57.8838 32.5021C57.9762 32.3472 58.025 32.1702 58.025 31.9898C58.025 31.8094 57.9762 31.6323 57.8838 31.4774C57.7914 31.3225 57.6588 31.1955 57.5 31.1098L24.5 12.1098C24.348 12.022 24.1756 11.9758 24 11.9758C23.8245 11.9758 23.652 12.022 23.5 12.1098C23.3444 12.1995 23.2159 12.3296 23.1279 12.4862C23.0399 12.6428 22.9957 12.8202 23 12.9998V17.5998C23 18.1302 22.7893 18.6389 22.4142 19.014C22.0392 19.3891 21.5304 19.5998 21 19.5998C20.4696 19.5998 19.9609 19.3891 19.5858 19.014C19.2107 18.6389 19 18.1302 19 17.5998V12.9998C18.998 12.1192 19.2286 11.2536 19.6685 10.4907C20.1083 9.72785 20.7419 9.09467 21.505 8.65524C22.2682 8.21582 23.1339 7.98575 24.0145 7.9883C24.8951 7.99085 25.7594 8.22594 26.52 8.66977L59.52 27.6698C60.2848 28.1073 60.9203 28.7391 61.3624 29.5012C61.8044 30.2633 62.0372 31.1287 62.0372 32.0098C62.0372 32.8908 61.8044 33.7562 61.3624 34.5183C60.9203 35.2805 60.2848 35.9123 59.52 36.3498L26.52 55.3498C25.757 55.8026 24.8872 56.0442 24 56.0498Z" fill="url(#paint0_linear_206_9131)"/>
<path d="M42.49 27.6602L9.49001 8.66021C8.72945 8.22344 7.86738 7.9944 6.99033 7.9961C6.11328 7.9978 5.2521 8.23017 4.49324 8.66989C3.73437 9.1096 3.10452 9.74119 2.6669 10.5013C2.22928 11.2613 1.99929 12.1232 2.00001 13.0002V19.0002C2.00001 19.5306 2.21073 20.0394 2.5858 20.4144C2.96087 20.7895 3.46958 21.0002 4.00001 21.0002C6.91739 21.0002 9.71529 22.1591 11.7782 24.222C13.8411 26.2849 15 29.0828 15 32.0002C15 34.9176 13.8411 37.7155 11.7782 39.7784C9.71529 41.8413 6.91739 43.0002 4.00001 43.0002C3.46958 43.0002 2.96087 43.2109 2.5858 43.586C2.21073 43.9611 2.00001 44.4698 2.00001 45.0002V51.0002C1.99799 51.8808 2.22858 52.7464 2.66846 53.5092C3.10834 54.2721 3.7419 54.9053 4.50505 55.3447C5.2682 55.7842 6.13387 56.0142 7.01448 56.0117C7.8951 56.0091 8.75942 55.774 9.52001 55.3302L42.52 36.3302C43.2848 35.8927 43.9203 35.2609 44.3624 34.4988C44.8044 33.7367 45.0372 32.8713 45.0372 31.9902C45.0372 31.1092 44.8044 30.2438 44.3624 29.4816C43.9203 28.7195 43.2848 28.0877 42.52 27.6502L42.49 27.6602ZM40.49 32.8802L7.49001 51.8802C7.33799 51.968 7.16555 52.0142 6.99001 52.0142C6.81448 52.0142 6.64203 51.968 6.49001 51.8802C6.33778 51.79 6.21222 51.661 6.12613 51.5064C6.04005 51.3518 5.99653 51.1771 6.00001 51.0002V46.8502C9.57555 46.3407 12.8472 44.5583 15.2141 41.8303C17.5809 39.1022 18.884 35.6119 18.884 32.0002C18.884 28.3886 17.5809 24.8982 15.2141 22.1702C12.8472 19.4421 9.57555 17.6597 6.00001 17.1502V13.0002C5.99931 12.824 6.04519 12.6507 6.13299 12.498C6.22079 12.3452 6.34741 12.2183 6.50001 12.1302C6.65203 12.0424 6.82448 11.9962 7.00001 11.9962C7.17555 11.9962 7.34799 12.0424 7.50001 12.1302L40.5 31.1302C40.6588 31.2159 40.7914 31.3429 40.8838 31.4978C40.9762 31.6528 41.025 31.8298 41.025 32.0102C41.025 32.1906 40.9762 32.3677 40.8838 32.5226C40.7914 32.6775 40.6588 32.8045 40.5 32.8902L40.49 32.8802Z" fill="black"/>
<defs>
<linearGradient id="paint0_linear_206_9131" x1="19" y1="31.9998" x2="62" y2="31.9998" gradientUnits="userSpaceOnUse">
<stop stop-color="#2357FF"/>
<stop offset="0.38" stop-color="#1B6FF6"/>
<stop offset="1" stop-color="#0B9EE3"/>
</linearGradient>
</defs>
</svg>
